<svg xmlns="http://www.w3.org/2000/svg" xmlns:xlink="http://www.w3.org/1999/xlink" width="1920" zoomAndPan="magnify" viewBox="0 0 1440 809.999993" height="1080" preserveAspectRatio="xMidYMid meet" version="1.0"><defs><clipPath id="5e1b7c85ed"><path d="M 39.328125 0 L 1400.578125 0 L 1400.578125 810 L 39.328125 810 Z M 39.328125 0 " clip-rule="nonzero"/></clipPath></defs><path fill="#ecf2e9" d="M 1377.96875 4.628906 L 149.550781 4.628906 C 139.632812 4.628906 131.570312 12.691406 131.570312 22.605469 L 131.570312 62.003906 L 105.789062 62.003906 C 95.875 62.003906 87.8125 70.066406 87.8125 79.980469 L 87.8125 119.378906 L 62.03125 119.378906 C 52.117188 119.378906 44.050781 127.441406 44.050781 137.359375 L 44.050781 787.128906 C 44.050781 797.042969 52.117188 805.109375 62.03125 805.109375 L 1290.449219 805.109375 C 1300.363281 805.109375 1308.429688 797.042969 1308.429688 787.128906 L 1308.429688 747.734375 L 1334.078125 747.734375 C 1343.992188 747.734375 1352.054688 739.667969 1352.054688 729.753906 L 1352.054688 690.359375 L 1377.703125 690.359375 C 1387.617188 690.359375 1395.683594 682.292969 1395.683594 672.378906 L 1395.683594 22.605469 C 1395.945312 12.691406 1387.882812 4.628906 1377.96875 4.628906 Z M 1377.96875 4.628906 " fill-opacity="1" fill-rule="nonzero"/><path fill="#2d535f" d="M 1395.945312 22.605469 L 1395.945312 141.851562 L 131.4375 141.851562 L 131.4375 199.226562 L 87.8125 199.226562 L 87.8125 256.605469 L 44.050781 256.605469 L 44.050781 137.488281 C 44.050781 127.574219 52.117188 119.511719 62.03125 119.511719 L 87.679688 119.511719 L 87.679688 80.113281 C 87.679688 70.199219 95.742188 62.136719 105.65625 62.136719 L 131.304688 62.136719 L 131.304688 22.605469 C 131.304688 12.691406 139.371094 4.628906 149.285156 4.628906 L 1377.703125 4.628906 C 1387.882812 4.628906 1395.945312 12.691406 1395.945312 22.605469 Z M 1395.945312 22.605469 " fill-opacity="1" fill-rule="nonzero"/><path fill="#f4a2a0" d="M 1351 112.105469 L 1300.363281 112.105469 C 1292.960938 112.105469 1286.878906 106.027344 1286.878906 98.621094 L 1286.878906 47.855469 C 1286.878906 40.453125 1292.960938 34.371094 1300.363281 34.371094 L 1351 34.371094 C 1358.402344 34.371094 1364.484375 40.453125 1364.484375 47.855469 L 1364.484375 98.492188 C 1364.484375 106.027344 1358.535156 112.105469 1351 112.105469 Z M 478.996094 298.246094 C 411.96875 298.246094 357.765625 352.582031 357.765625 419.476562 C 357.765625 486.371094 412.101562 540.703125 478.996094 540.703125 C 545.890625 540.703125 600.226562 486.371094 600.226562 419.476562 C 600.226562 352.582031 545.890625 298.246094 478.996094 298.246094 Z M 478.996094 298.246094 " fill-opacity="1" fill-rule="nonzero"/><path fill="#ffffff" d="M 1250.789062 112.105469 L 1200.15625 112.105469 C 1192.753906 112.105469 1186.671875 106.027344 1186.671875 98.621094 L 1186.671875 47.855469 C 1186.671875 40.453125 1192.753906 34.371094 1200.15625 34.371094 L 1250.789062 34.371094 C 1258.191406 34.371094 1264.273438 40.453125 1264.273438 47.855469 L 1264.273438 98.492188 C 1264.273438 106.027344 1258.324219 112.105469 1250.789062 112.105469 Z M 1250.789062 112.105469 " fill-opacity="1" fill-rule="nonzero"/><g clip-path="url(#5e1b7c85ed)"><path fill="#2b2a37" d="M 1400.441406 20.359375 C 1399.253906 8.988281 1389.601562 0 1377.96875 0 L 149.550781 0 C 137.785156 0 128.132812 8.988281 127.074219 20.359375 C 126.941406 21.152344 126.941406 21.945312 126.941406 22.605469 L 126.941406 57.375 L 105.789062 57.375 C 101.824219 57.375 98.253906 58.433594 94.949219 60.152344 C 91.117188 62.265625 87.941406 65.441406 85.828125 69.273438 C 84.109375 72.445312 83.050781 76.148438 83.050781 80.113281 L 83.050781 114.882812 L 62.03125 114.882812 C 49.605469 114.882812 39.425781 125.0625 39.425781 137.488281 L 39.425781 787.394531 C 39.425781 799.820312 49.605469 810 62.03125 810 L 1290.449219 810 C 1302.878906 810 1313.054688 799.820312 1313.054688 787.394531 L 1313.054688 752.625 L 1334.078125 752.625 C 1346.503906 752.625 1356.683594 742.445312 1356.683594 730.019531 L 1356.683594 695.25 L 1377.703125 695.25 C 1390.128906 695.25 1400.308594 685.070312 1400.308594 672.640625 L 1400.308594 22.605469 C 1400.574219 21.8125 1400.574219 21.152344 1400.441406 20.359375 Z M 136.066406 22.605469 C 136.066406 15.203125 142.144531 9.253906 149.550781 9.253906 L 1377.96875 9.253906 C 1385.371094 9.253906 1391.320312 15.335938 1391.320312 22.605469 L 1391.320312 137.226562 L 136.066406 137.226562 Z M 92.4375 80.113281 C 92.4375 76.941406 93.628906 73.902344 95.480469 71.519531 C 95.742188 71.125 96.007812 70.859375 96.402344 70.597656 C 97.328125 69.671875 98.386719 68.878906 99.445312 68.347656 C 101.296875 67.289062 103.542969 66.761719 105.789062 66.761719 L 126.808594 66.761719 L 126.808594 194.867188 L 92.4375 194.867188 Z M 48.679688 137.488281 C 48.679688 130.085938 54.761719 124.136719 62.03125 124.136719 L 83.050781 124.136719 L 83.050781 252.242188 L 48.679688 252.242188 Z M 1303.933594 787.394531 C 1303.933594 794.796875 1297.851562 800.746094 1290.582031 800.746094 L 62.03125 800.746094 C 54.628906 800.746094 48.679688 794.664062 48.679688 787.394531 L 48.679688 261.363281 L 83.183594 261.363281 L 83.183594 729.886719 C 83.183594 742.3125 93.363281 752.492188 105.789062 752.492188 L 1303.933594 752.492188 Z M 1347.691406 729.886719 C 1347.691406 737.289062 1341.613281 743.238281 1334.339844 743.238281 L 105.789062 743.238281 C 98.386719 743.238281 92.4375 737.15625 92.4375 729.886719 L 92.4375 203.988281 L 126.941406 203.988281 L 126.941406 672.511719 C 126.941406 684.9375 137.121094 695.117188 149.550781 695.117188 L 1347.691406 695.117188 Z M 1391.320312 672.511719 C 1391.320312 679.914062 1385.238281 685.863281 1377.96875 685.863281 L 149.550781 685.863281 C 142.144531 685.863281 136.195312 679.78125 136.195312 672.511719 L 136.195312 146.480469 L 1391.453125 146.480469 L 1391.453125 672.511719 Z M 1244.972656 73.238281 C 1244.972656 75.75 1242.859375 77.867188 1240.34375 77.867188 L 1209.410156 77.867188 C 1206.898438 77.867188 1204.785156 75.75 1204.785156 73.238281 C 1204.785156 70.726562 1206.898438 68.613281 1209.410156 68.613281 L 1240.214844 68.613281 C 1242.855469 68.613281 1244.972656 70.726562 1244.972656 73.238281 Z M 1250.789062 29.746094 L 1200.15625 29.746094 C 1190.109375 29.746094 1182.042969 37.808594 1182.042969 47.855469 L 1182.042969 98.492188 C 1182.042969 108.539062 1190.109375 116.601562 1200.15625 116.601562 L 1250.789062 116.601562 C 1260.703125 116.601562 1268.902344 108.539062 1268.902344 98.492188 L 1268.902344 47.855469 C 1268.902344 37.941406 1260.835938 29.746094 1250.789062 29.746094 Z M 1259.777344 98.621094 C 1259.777344 103.515625 1255.8125 107.480469 1250.921875 107.480469 L 1200.15625 107.480469 C 1195.265625 107.480469 1191.296875 103.515625 1191.296875 98.621094 L 1191.296875 47.855469 C 1191.296875 42.964844 1195.265625 39 1200.15625 39 L 1250.789062 39 C 1255.679688 39 1259.648438 42.964844 1259.648438 47.855469 L 1259.648438 98.621094 Z M 1351 29.746094 L 1300.363281 29.746094 C 1290.449219 29.746094 1282.253906 37.808594 1282.253906 47.855469 L 1282.253906 98.492188 C 1282.253906 108.539062 1290.316406 116.601562 1300.363281 116.601562 L 1351 116.601562 C 1361.046875 116.601562 1369.109375 108.539062 1369.109375 98.492188 L 1369.109375 47.855469 C 1369.109375 37.941406 1361.046875 29.746094 1351 29.746094 Z M 1359.855469 98.621094 C 1359.855469 103.515625 1355.890625 107.480469 1351 107.480469 L 1300.363281 107.480469 C 1295.472656 107.480469 1291.507812 103.515625 1291.507812 98.621094 L 1291.507812 47.855469 C 1291.507812 42.964844 1295.472656 39 1300.363281 39 L 1351 39 C 1355.890625 39 1359.855469 42.964844 1359.855469 47.855469 Z M 1343.199219 62.53125 L 1332.359375 73.238281 L 1343.199219 83.949219 C 1345.050781 85.800781 1345.050781 88.707031 1343.199219 90.425781 C 1342.273438 91.351562 1341.082031 91.746094 1339.894531 91.746094 C 1338.703125 91.746094 1337.515625 91.351562 1336.71875 90.425781 L 1325.746094 79.585938 L 1314.773438 90.425781 C 1313.851562 91.351562 1312.660156 91.746094 1311.601562 91.746094 C 1310.414062 91.746094 1309.222656 91.351562 1308.296875 90.425781 C 1306.445312 88.574219 1306.578125 85.667969 1308.296875 83.949219 L 1319.136719 73.238281 L 1308.296875 62.53125 C 1306.445312 60.679688 1306.445312 57.773438 1308.296875 56.054688 C 1310.148438 54.203125 1313.054688 54.203125 1314.773438 56.054688 L 1325.746094 66.894531 L 1336.71875 56.054688 C 1338.570312 54.335938 1341.480469 54.335938 1343.199219 56.054688 C 1345.050781 57.90625 1345.050781 60.8125 1343.199219 62.53125 Z M 478.996094 545.332031 C 548.402344 545.332031 604.851562 488.882812 604.851562 419.476562 C 604.851562 350.070312 548.402344 293.621094 478.996094 293.621094 C 409.589844 293.621094 353.140625 350.070312 353.140625 419.476562 C 353.140625 488.882812 409.589844 545.332031 478.996094 545.332031 Z M 478.996094 302.742188 C 543.246094 302.742188 595.597656 355.09375 595.597656 419.34375 C 595.597656 483.59375 543.246094 535.945312 478.996094 535.945312 C 414.746094 535.945312 362.394531 483.59375 362.394531 419.34375 C 362.394531 355.09375 414.613281 302.742188 478.996094 302.742188 Z M 678.089844 459.269531 C 675.84375 457.019531 674.65625 453.980469 674.65625 450.148438 L 674.65625 383.386719 C 674.65625 379.550781 675.84375 376.511719 678.089844 374.261719 C 680.339844 372.015625 683.378906 370.824219 687.214844 370.824219 L 737.1875 370.824219 C 737.847656 371.882812 738.375 373.074219 738.90625 374.660156 C 739.433594 376.113281 739.699219 377.832031 739.699219 379.816406 C 739.699219 383.121094 738.90625 385.632812 737.449219 387.21875 C 735.996094 388.804688 734.011719 389.597656 731.367188 389.597656 L 697.789062 389.597656 L 697.789062 406.519531 L 732.824219 406.519531 C 733.484375 407.578125 734.011719 408.769531 734.542969 410.355469 C 735.070312 411.808594 735.335938 413.527344 735.335938 415.511719 C 735.335938 418.816406 734.675781 421.328125 733.21875 422.78125 C 731.765625 424.367188 729.78125 425.160156 727.136719 425.160156 L 697.789062 425.160156 L 697.789062 444.066406 L 737.714844 444.066406 C 738.375 445.125 738.90625 446.3125 739.433594 448.03125 C 739.960938 449.617188 740.226562 451.46875 740.226562 453.320312 C 740.226562 456.625 739.433594 459.003906 737.980469 460.589844 C 736.523438 462.046875 734.542969 462.839844 732.03125 462.839844 L 687.214844 462.839844 C 683.378906 462.574219 680.339844 461.515625 678.089844 459.269531 Z M 778.566406 463.367188 C 780.8125 463.367188 782.925781 463.234375 784.910156 462.96875 C 786.894531 462.707031 788.480469 462.441406 789.539062 462.175781 L 789.539062 431.902344 L 799.980469 431.902344 L 814.523438 454.378906 C 816.375 457.285156 818.226562 459.535156 820.207031 461.25 C 822.191406 462.96875 825.101562 463.765625 828.933594 463.765625 C 831.84375 463.765625 834.484375 462.96875 836.996094 461.25 C 839.511719 459.535156 841.097656 457.152344 842.023438 453.980469 C 840.171875 451.074219 837.394531 447.238281 833.691406 442.480469 C 829.859375 437.71875 826.023438 432.5625 821.792969 427.144531 C 827.082031 424.367188 831.179688 420.796875 834.222656 416.171875 C 837.261719 411.542969 838.847656 406.257812 838.847656 400.4375 C 838.847656 390.523438 835.410156 382.855469 828.539062 377.171875 C 821.664062 371.488281 811.484375 368.710938 797.734375 368.710938 C 792.84375 368.710938 788.082031 368.976562 783.589844 369.503906 C 779.09375 370.03125 775.128906 370.824219 771.953125 372.015625 C 769.972656 372.675781 768.386719 373.46875 767.328125 374.527344 C 766.269531 375.585938 765.742188 377.171875 765.742188 379.15625 L 765.742188 452.261719 C 765.742188 456.492188 766.667969 459.402344 768.515625 460.988281 C 770.632812 462.574219 773.9375 463.367188 778.566406 463.367188 Z M 789.273438 388.277344 C 790.59375 388.144531 791.917969 387.878906 793.238281 387.746094 C 794.5625 387.617188 796.015625 387.484375 797.601562 387.484375 C 809.105469 387.484375 814.921875 391.847656 814.921875 400.4375 C 814.921875 404.800781 813.464844 408.105469 810.425781 410.355469 C 807.386719 412.46875 803.550781 413.660156 798.660156 413.660156 L 789.273438 413.660156 Z M 878.90625 463.367188 C 881.152344 463.367188 883.269531 463.234375 885.25 462.96875 C 887.234375 462.707031 888.820312 462.441406 889.878906 462.175781 L 889.878906 431.902344 L 900.324219 431.902344 L 914.863281 454.378906 C 916.714844 457.285156 918.566406 459.535156 920.550781 461.25 C 922.53125 462.96875 925.441406 463.765625 929.273438 463.765625 C 932.183594 463.765625 934.828125 462.96875 937.339844 461.25 C 939.851562 459.535156 941.4375 457.152344 942.363281 453.980469 C 940.511719 451.074219 937.734375 447.238281 934.035156 442.480469 C 930.199219 437.71875 926.367188 432.5625 922.136719 427.144531 C 927.425781 424.367188 931.523438 420.796875 934.5625 416.171875 C 937.605469 411.542969 939.191406 406.257812 939.191406 400.4375 C 939.191406 390.523438 935.753906 382.855469 928.878906 377.171875 C 922.003906 371.488281 911.824219 368.710938 898.074219 368.710938 C 893.183594 368.710938 888.425781 368.976562 883.929688 369.503906 C 879.433594 370.03125 875.46875 370.824219 872.296875 372.015625 C 870.3125 372.675781 868.726562 373.46875 867.667969 374.527344 C 866.609375 375.585938 866.082031 377.171875 866.082031 379.15625 L 866.082031 452.261719 C 866.082031 456.492188 867.007812 459.402344 868.859375 460.988281 C 870.839844 462.574219 874.148438 463.367188 878.90625 463.367188 Z M 889.613281 388.277344 C 890.9375 388.144531 892.257812 387.878906 893.582031 387.746094 C 894.902344 387.617188 896.355469 387.484375 897.941406 387.484375 C 909.445312 387.484375 915.261719 391.847656 915.261719 400.4375 C 915.261719 404.800781 913.808594 408.105469 910.765625 410.355469 C 907.726562 412.46875 903.890625 413.660156 899 413.660156 L 889.613281 413.660156 Z M 974.089844 452.394531 C 978.320312 456.492188 983.214844 459.535156 988.898438 461.648438 C 994.582031 463.765625 1000.929688 464.820312 1007.671875 464.820312 C 1014.414062 464.820312 1020.625 463.765625 1026.441406 461.648438 C 1032.128906 459.535156 1037.152344 456.492188 1041.382812 452.394531 C 1045.613281 448.296875 1048.917969 443.273438 1051.296875 437.191406 C 1053.675781 431.109375 1054.867188 424.234375 1054.867188 416.433594 C 1054.867188 408.636719 1053.675781 401.628906 1051.296875 395.679688 C 1048.917969 389.730469 1045.613281 384.707031 1041.382812 380.609375 C 1037.152344 376.511719 1032.128906 373.46875 1026.441406 371.355469 C 1020.757812 369.238281 1014.546875 368.183594 1007.933594 368.183594 C 1001.324219 368.183594 995.113281 369.238281 989.425781 371.355469 C 983.742188 373.46875 978.851562 376.511719 974.621094 380.609375 C 970.390625 384.707031 967.085938 389.730469 964.703125 395.679688 C 962.324219 401.628906 961.136719 408.636719 961.136719 416.433594 C 961.136719 424.234375 962.324219 431.242188 964.703125 437.191406 C 966.554688 443.273438 969.859375 448.296875 974.089844 452.394531 Z M 991.144531 394.621094 C 995.242188 389.730469 1000.796875 387.351562 1007.539062 387.351562 C 1014.414062 387.351562 1019.964844 389.730469 1024.0625 394.621094 C 1028.160156 399.511719 1030.144531 406.785156 1030.144531 416.433594 C 1030.144531 426.21875 1028.160156 433.488281 1024.0625 438.382812 C 1019.964844 443.273438 1014.546875 445.652344 1007.539062 445.652344 C 1000.664062 445.652344 995.113281 443.273438 991.011719 438.382812 C 986.914062 433.488281 984.933594 426.21875 984.933594 416.433594 C 984.933594 406.785156 987.046875 399.511719 991.144531 394.621094 Z M 1092.675781 463.367188 C 1094.921875 463.367188 1097.039062 463.234375 1099.023438 462.96875 C 1101.003906 462.707031 1102.589844 462.441406 1103.648438 462.175781 L 1103.648438 431.902344 L 1114.09375 431.902344 L 1128.636719 454.378906 C 1130.484375 457.285156 1132.335938 459.535156 1134.320312 461.25 C 1136.304688 462.96875 1139.210938 463.765625 1143.046875 463.765625 C 1145.953125 463.765625 1148.597656 462.96875 1151.109375 461.25 C 1153.621094 459.535156 1155.207031 457.152344 1156.132812 453.980469 C 1154.28125 451.074219 1151.507812 447.238281 1147.804688 442.480469 C 1143.96875 437.71875 1140.136719 432.5625 1135.90625 427.144531 C 1141.195312 424.367188 1145.292969 420.796875 1148.332031 416.171875 C 1151.375 411.542969 1152.960938 406.257812 1152.960938 400.4375 C 1152.960938 390.523438 1149.523438 382.855469 1142.648438 377.171875 C 1135.773438 371.488281 1125.59375 368.710938 1111.84375 368.710938 C 1106.953125 368.710938 1102.195312 368.976562 1097.699219 369.503906 C 1093.203125 370.03125 1089.238281 370.824219 1086.066406 372.015625 C 1084.082031 372.675781 1082.496094 373.46875 1081.4375 374.527344 C 1080.382812 375.585938 1079.851562 377.171875 1079.851562 379.15625 L 1079.851562 452.261719 C 1079.851562 456.492188 1080.777344 459.402344 1082.628906 460.988281 C 1084.613281 462.574219 1087.917969 463.367188 1092.675781 463.367188 Z M 1103.382812 388.277344 C 1104.707031 388.144531 1106.027344 387.878906 1107.351562 387.746094 C 1108.671875 387.617188 1110.125 387.484375 1111.714844 387.484375 C 1123.214844 387.484375 1129.03125 391.847656 1129.03125 400.4375 C 1129.03125 404.800781 1127.578125 408.105469 1124.535156 410.355469 C 1121.496094 412.46875 1117.664062 413.660156 1112.769531 413.660156 L 1103.382812 413.660156 Z M 465.777344 381.269531 C 465.644531 375.054688 465.511719 369.503906 465.511719 364.875 C 467.625 363.554688 470.136719 362.628906 472.78125 361.96875 C 475.425781 361.308594 478.203125 360.910156 480.980469 360.910156 C 485.339844 360.910156 488.648438 361.96875 491.160156 364.082031 C 493.671875 366.199219 494.859375 369.371094 494.859375 373.601562 C 494.859375 376.511719 494.859375 380.476562 494.726562 385.5 C 494.59375 390.523438 494.332031 395.945312 494.066406 401.761719 C 493.800781 407.578125 493.40625 413.394531 492.746094 419.210938 C 492.214844 425.027344 491.554688 430.183594 490.894531 434.8125 C 489.96875 435.605469 488.382812 436.265625 486.265625 436.664062 C 484.152344 437.058594 482.300781 437.324219 480.714844 437.324219 C 477.542969 437.324219 475.03125 436.792969 472.914062 435.738281 C 470.800781 434.679688 469.476562 432.828125 468.816406 430.050781 C 468.289062 427.144531 467.890625 423.046875 467.496094 417.492188 C 467.097656 412.074219 466.699219 406.125 466.4375 399.910156 C 466.171875 393.695312 465.90625 387.484375 465.777344 381.269531 Z M 468.816406 473.546875 C 466.039062 470.636719 464.585938 466.804688 464.585938 462.308594 C 464.585938 457.683594 466.039062 453.980469 468.816406 451.074219 C 471.59375 448.164062 475.558594 446.710938 480.582031 446.710938 C 485.472656 446.710938 489.441406 448.164062 492.214844 451.074219 C 494.992188 453.980469 496.445312 457.816406 496.445312 462.308594 C 496.445312 466.9375 494.992188 470.636719 492.214844 473.546875 C 489.441406 476.453125 485.472656 477.910156 480.582031 477.910156 C 475.558594 478.042969 471.726562 476.453125 468.816406 473.546875 Z M 468.816406 473.546875 " fill-opacity="1" fill-rule="nonzero"/></g></svg>